<svg width="16" height="16" viewBox="0 0 16 16" fill="none" xmlns="http://www.w3.org/2000/svg">
<rect x="2.66602" y="2.66602" width="10.6679" height="10.6674" fill="white"/>
<path d="M0.632876 11.1135C0.215229 10.1286 0 9.06979 0 8C0 6.93021 0.215229 5.87136 0.632876 4.88646C1.02739 3.93259 1.60618 3.0659 2.33612 2.336C3.06605 1.60611 3.93279 1.02734 4.8867 0.632845C5.87165 0.215218 6.93056 0 8.0004 0C9.07024 0 10.1291 0.215218 11.1141 0.632845C12.068 1.02734 12.9347 1.60611 13.6647 2.336C14.3946 3.0659 14.9734 3.93259 15.3679 4.88646C15.7856 5.87136 16.0008 6.93021 16.0008 8C16.0008 9.06979 15.7856 10.1286 15.3679 11.1135C14.9734 12.0674 14.3946 12.9341 13.6647 13.664C12.9347 14.3939 12.068 14.9727 11.1141 15.3672C10.1291 15.7848 9.07024 16 8.0004 16C6.93056 16 5.87165 15.7848 4.8867 15.3672C3.93279 14.9727 3.06605 14.3939 2.33612 13.664C1.60618 12.9341 1.02739 12.0674 0.632876 11.1135V11.1135ZM3.01595 9.43756L6.44608 12.7191H6.49289L12.4936 4.53097L10.7903 3.28089L6.19606 9.60131L4.47706 7.914L3.01595 9.43756Z" fill="#1E58C4"/>
</svg>
